<svg xmlns="http://www.w3.org/2000/svg" viewBox="0 0 64 64">
  <rect width="64" height="64" fill="white"/>
  <g stroke="#0a0a0a" stroke-width="1.6" stroke-linejoin="round" transform="translate(8 8) scale(0.75)">
    <rect x="10" y="48" width="20" height="6" rx="2" fill="white"/>
    <rect x="13" y="44" width="14" height="4" rx="1" fill="white"/>
    <rect x="15" y="22" width="10" height="22" rx="3" fill="#0a0a0a"/>
    <rect x="13" y="18" width="14" height="5" rx="2" fill="white"/>
    <rect x="23" y="20" width="22" height="4" rx="1.5" fill="white"/>
    <circle cx="40" cy="22" r="2" fill="#0a0a0a" stroke="#0a0a0a" stroke-width="1.5"/>
    <rect x="29" y="24" width="4" height="14" rx="1.5" fill="white"/>
    <line x1="31" y1="38" x2="31" y2="46" stroke-width="2" stroke-linecap="round"/>
    <rect x="37" y="24" width="4" height="14" rx="1.5" fill="white"/>
    <line x1="39" y1="38" x2="39" y2="46" stroke-width="2" stroke-linecap="round"/>
    <rect x="45" y="24" width="4" height="14" rx="1.5" fill="white"/>
    <line x1="47" y1="38" x2="47" y2="46" stroke-width="2" stroke-linecap="round"/>
  </g>
</svg>
